<svg width="97" height="19" viewBox="0 0 97 19" fill="none" xmlns="http://www.w3.org/2000/svg">
<path d="M4.44 11.448L4.368 4.056C4.368 3.336 4.376 2.872 4.392 2.664C4.408 2.152 4.528 1.784 4.752 1.56C4.992 1.32 5.448 1.2 6.12 1.2H12.552C13.224 1.2 13.672 1.32 13.896 1.56C14.136 1.784 14.264 2.152 14.28 2.664C14.312 3.672 14.328 4.888 14.328 6.312C14.328 7.72 14.296 9.432 14.232 11.448C14.184 14.568 12.576 16.624 9.408 17.616C7.584 18.192 5.248 18.48 2.4 18.48C1.76 18.48 1.336 18.288 1.128 17.904C0.92 17.52 0.816 16.856 0.816 15.912C0.816 14.952 1.184 14.432 1.92 14.352C2.816 14.24 3.456 13.864 3.84 13.224C4.24 12.568 4.44 11.976 4.44 11.448ZM18.7963 5.856H23.4763C24.0203 5.856 24.3803 5.976 24.5563 6.216C24.7483 6.456 24.8683 6.992 24.9163 7.824C24.9803 8.64 25.0123 10.144 25.0123 12.336C25.0123 14.512 24.9643 16.048 24.8683 16.944C24.8203 17.216 24.6843 17.456 24.4603 17.664C24.2363 17.872 23.8363 17.992 23.2603 18.024C22.7003 18.072 22.0283 18.096 21.2443 18.096C20.4603 18.096 19.7483 18.072 19.1083 18.024C18.4683 17.992 18.0363 17.872 17.8123 17.664C17.5883 17.456 17.4603 17.216 17.4283 16.944C17.3163 15.904 17.2603 14.312 17.2603 12.168C17.2603 10.008 17.2923 8.536 17.3563 7.752C17.4203 6.968 17.5403 6.456 17.7163 6.216C17.8923 5.976 18.2523 5.856 18.7963 5.856ZM21.3883 0.191999C22.4443 0.191999 23.2363 0.407999 23.7643 0.839999C24.3083 1.256 24.5803 1.832 24.5803 2.568C24.5803 4.296 23.4283 5.16 21.1243 5.16C20.1963 5.16 19.4043 4.96 18.7483 4.56C18.0923 4.16 17.7643 3.56 17.7643 2.76C17.7643 1.048 18.9723 0.191999 21.3883 0.191999ZM37.9809 9.24C37.2289 9.24 36.6689 9.488 36.3009 9.984C35.9329 10.48 35.7489 11.096 35.7489 11.832C35.7489 12.568 35.9649 13.2 36.3969 13.728C36.8289 14.256 37.5249 14.52 38.4849 14.52C38.7889 14.52 39.2369 14.44 39.8289 14.28C40.4209 14.12 40.8369 14.04 41.0769 14.04C41.6369 14.04 41.9329 14.576 41.9649 15.648C41.9649 16.112 41.9329 16.544 41.8689 16.944C41.8209 17.344 41.5249 17.632 40.9809 17.808C39.3809 18.304 37.9649 18.552 36.7329 18.552C35.5169 18.552 34.5169 18.504 33.7329 18.408C32.9649 18.328 32.1809 18.152 31.3809 17.88C30.5969 17.608 29.9409 17.248 29.4129 16.8C28.9009 16.352 28.4769 15.752 28.1409 15C27.8209 14.232 27.6609 13.272 27.6609 12.12C27.6609 10.952 27.9089 9.912 28.4049 9C28.9169 8.088 29.6129 7.392 30.4929 6.912C32.1569 6.016 34.2369 5.568 36.7329 5.568C38.0769 5.568 39.4449 5.784 40.8369 6.216C41.4289 6.408 41.7249 7.056 41.7249 8.16C41.7249 9.248 41.4449 9.792 40.8849 9.792C40.6449 9.792 40.2049 9.704 39.5649 9.528C38.9409 9.336 38.4129 9.24 37.9809 9.24ZM51.1757 12C51.1757 13.792 51.6477 14.688 52.5917 14.688C53.5357 14.688 54.0077 13.792 54.0077 12C54.0077 11.184 53.9117 10.56 53.7197 10.128C53.5277 9.68 53.1517 9.456 52.5917 9.456C52.0317 9.456 51.6557 9.68 51.4637 10.128C51.2717 10.56 51.1757 11.184 51.1757 12ZM61.5437 12C61.5437 16.352 58.5597 18.528 52.5917 18.528C46.6237 18.528 43.6397 16.352 43.6397 12C43.6397 9.936 44.3997 8.336 45.9197 7.2C47.4397 6.064 49.6637 5.496 52.5917 5.496C55.5197 5.496 57.7437 6.064 59.2637 7.2C60.7837 8.336 61.5437 9.936 61.5437 12ZM74.0278 9.24C73.2758 9.24 72.7158 9.488 72.3478 9.984C71.9798 10.48 71.7958 11.096 71.7958 11.832C71.7958 12.568 72.0118 13.2 72.4438 13.728C72.8758 14.256 73.5718 14.52 74.5318 14.52C74.8358 14.52 75.2838 14.44 75.8758 14.28C76.4678 14.12 76.8838 14.04 77.1238 14.04C77.6838 14.04 77.9798 14.576 78.0118 15.648C78.0118 16.112 77.9798 16.544 77.9158 16.944C77.8678 17.344 77.5718 17.632 77.0278 17.808C75.4278 18.304 74.0118 18.552 72.7798 18.552C71.5638 18.552 70.5638 18.504 69.7798 18.408C69.0118 18.328 68.2278 18.152 67.4278 17.88C66.6438 17.608 65.9878 17.248 65.4598 16.8C64.9478 16.352 64.5238 15.752 64.1878 15C63.8678 14.232 63.7078 13.272 63.7078 12.12C63.7078 10.952 63.9558 9.912 64.4518 9C64.9638 8.088 65.6598 7.392 66.5398 6.912C68.2038 6.016 70.2838 5.568 72.7798 5.568C74.1238 5.568 75.4918 5.784 76.8838 6.216C77.4758 6.408 77.7718 7.056 77.7718 8.16C77.7718 9.248 77.4918 9.792 76.9318 9.792C76.6918 9.792 76.2518 9.704 75.6118 9.528C74.9878 9.336 74.4598 9.24 74.0278 9.24ZM88.6146 5.4C93.8306 5.4 96.4626 7.096 96.5106 10.488C96.5426 11.928 96.5586 13.248 96.5586 14.448C96.5586 15.648 96.5506 16.456 96.5346 16.872C96.5186 17.288 96.4066 17.592 96.1986 17.784C96.0066 17.96 95.6226 18.048 95.0466 18.048H89.9586C89.4466 18.048 89.0946 17.96 88.9026 17.784C88.7106 17.592 88.6066 17.312 88.5906 16.944C88.5906 16.928 88.5826 16.904 88.5666 16.872C88.5666 16.824 88.5666 16.784 88.5666 16.752C87.5106 17.84 86.0706 18.384 84.2466 18.384C82.9826 18.384 81.9026 18.072 81.0066 17.448C80.1266 16.808 79.6866 15.936 79.6866 14.832C79.6866 13.712 79.9986 12.824 80.6226 12.168C81.2626 11.496 82.0146 11.04 82.8786 10.8C83.7586 10.56 84.6946 10.44 85.6866 10.44C86.6946 10.44 87.6786 10.536 88.6386 10.728V10.632C88.6386 9.832 88.4786 9.256 88.1586 8.904C87.8546 8.552 87.3506 8.376 86.6466 8.376C85.9586 8.376 85.3826 8.44 84.9186 8.568C84.4546 8.68 84.1026 8.8 83.8626 8.928C83.2066 9.312 82.7506 9.504 82.4946 9.504C82.2386 9.504 82.0066 9.384 81.7986 9.144C81.6066 8.904 81.5106 8.536 81.5106 8.04C81.5106 7.528 81.5986 7.176 81.7746 6.984C81.9666 6.792 82.2626 6.6 82.6626 6.408C84.0546 5.736 86.0386 5.4 88.6146 5.4ZM87.4866 15.216C88.1906 15.216 88.5506 15.08 88.5666 14.808C88.5986 14.28 88.6146 13.584 88.6146 12.72C88.6146 12.384 88.3586 12.216 87.8466 12.216C87.3346 12.216 86.9186 12.344 86.5986 12.6C86.2786 12.84 86.1186 13.2 86.1186 13.68C86.1186 14.16 86.2466 14.536 86.5026 14.808C86.7746 15.08 87.1026 15.216 87.4866 15.216Z" fill="currentColor"/>
</svg> 